<svg width="33" height="33" viewBox="0 0 33 33" fill="none" xmlns="http://www.w3.org/2000/svg">
<path fill-rule="evenodd" clip-rule="evenodd" d="M2.26298 4.23582C2.80368 3.6783 3.69396 3.66466 4.25148 4.20536L28.4181 27.6429C28.9757 28.1836 28.9893 29.0738 28.4486 29.6314C27.9079 30.1889 27.0176 30.2025 26.4601 29.6618L21.4828 24.8347C18.2494 26.0084 14.9054 25.9373 11.6812 24.6165C8.21047 23.1946 4.96545 20.3634 2.1182 16.272C1.78217 15.7891 1.78222 15.1481 2.11833 14.6653C3.38874 12.8404 4.73595 11.2685 6.14585 9.9605L2.29344 6.22433C1.73592 5.68363 1.72228 4.79334 2.26298 4.23582ZM8.16802 11.9217C7.09154 12.9059 6.03232 14.0863 5.00439 15.4689C7.47806 18.7968 10.1233 20.9389 12.7474 22.0139C14.8706 22.8837 17.0282 23.0768 19.1687 22.5905L8.16802 11.9217ZM20.7468 8.82934C17.8745 7.72209 14.9336 7.84691 12.0537 9.23296C11.3538 9.56976 10.5135 9.27548 10.1767 8.57566C9.83987 7.87584 10.1342 7.03549 10.834 6.69868C14.3944 4.98513 18.1424 4.81112 21.7585 6.20508C25.3395 7.58553 28.6873 10.4605 31.6141 14.6654C31.9503 15.1483 31.9502 15.7894 31.614 16.2723C30.0006 18.5897 28.2636 20.498 26.4333 21.9767C25.8292 22.4648 24.9438 22.3707 24.4557 21.7666C23.9677 21.1624 24.0617 20.277 24.6659 19.7889C26.0508 18.6701 27.4148 17.2344 28.7279 15.4686C26.1791 12.0402 23.4489 9.87096 20.7468 8.82934ZM17.6521 12.5753C17.0982 12.4377 16.5157 12.4484 15.9679 12.6059C15.2215 12.8205 14.4424 12.3894 14.2278 11.643C14.0132 10.8965 14.4444 10.1175 15.1908 9.90289C16.213 9.60899 17.2973 9.58929 18.3298 9.84562C19.3624 10.102 20.3091 10.6261 21.0672 11.3672C21.8256 12.1087 22.367 13.0401 22.6284 14.0644C22.8898 15.089 22.86 16.1637 22.5425 17.1726C22.3094 17.9135 21.5198 18.325 20.779 18.0919C20.0381 17.8587 19.6266 17.0692 19.8597 16.3284C20.0202 15.8183 20.0351 15.2768 19.9032 14.7598C19.7712 14.2425 19.4959 13.7643 19.1011 13.3783C18.7059 12.992 18.2058 12.7127 17.6521 12.5753Z" fill="black"/>
</svg>
