<svg width="33" height="32" viewBox="0 0 33 32" fill="none" xmlns="http://www.w3.org/2000/svg">
<path d="M18.1704 0.5C19.8579 0.50465 20.7143 0.51395 21.4538 0.535649L21.7448 0.546499C22.0807 0.558899 22.4122 0.574398 22.8127 0.592998C24.4086 0.670496 25.4976 0.93089 26.453 1.31373C27.443 1.70742 28.2769 2.24061 29.1109 3.10084C29.8736 3.87566 30.4637 4.81291 30.8403 5.84737C31.2108 6.8347 31.4628 7.95998 31.5378 9.61069C31.5558 10.023 31.5708 10.3655 31.5828 10.7143L31.5918 11.015C31.6142 11.7775 31.6233 12.6626 31.6263 14.4063L31.6277 15.5625V17.593C31.6314 18.7236 31.6199 19.8541 31.5933 20.9843L31.5843 21.285C31.5723 21.6338 31.5573 21.9763 31.5393 22.3886C31.4643 24.0393 31.2093 25.163 30.8403 26.1519C30.4648 27.1869 29.8745 28.1244 29.1109 28.8984C28.3609 29.6863 27.4539 30.2961 26.453 30.6855C25.4976 31.0684 24.4086 31.3288 22.8127 31.4063C22.4568 31.4236 22.1008 31.4391 21.7448 31.4528L21.4538 31.4621C20.7143 31.4838 19.8579 31.4946 18.1704 31.4977L17.0515 31.4993H15.0881C13.9935 31.5032 12.899 31.4913 11.8048 31.4636L11.5138 31.4543C11.1577 31.4404 10.8017 31.4244 10.4458 31.4063C8.84991 31.3288 7.76097 31.0684 6.80402 30.6855C5.80307 30.2971 4.89644 29.6871 4.14765 28.8984C3.38426 28.1239 2.79356 27.1866 2.41674 26.1519C2.04626 25.1646 1.79427 24.0393 1.71928 22.3886C1.70257 22.0208 1.68757 21.6529 1.67428 21.285L1.66678 20.9843C1.63914 19.8541 1.62664 18.7236 1.62928 17.593V14.4063C1.6251 13.2757 1.6361 12.1452 1.66228 11.015L1.67278 10.7143C1.68478 10.3655 1.69978 10.023 1.71778 9.61069C1.79278 7.95998 2.04476 6.83625 2.41524 5.84737C2.79189 4.81185 3.38377 3.87431 4.14915 3.10084C4.89775 2.31264 5.80379 1.70275 6.80402 1.31373C7.76097 0.93089 8.84841 0.670496 10.4458 0.592998C10.8448 0.574398 11.1778 0.558899 11.5138 0.546499L11.8048 0.537199C12.8985 0.50966 13.9925 0.497776 15.0866 0.50155L18.1704 0.5ZM16.6285 8.24982C14.6395 8.24982 12.7319 9.06632 11.3255 10.5197C9.91904 11.9731 9.1289 13.9443 9.1289 15.9996C9.1289 18.055 9.91904 20.0262 11.3255 21.4796C12.7319 22.933 14.6395 23.7495 16.6285 23.7495C18.6175 23.7495 20.5251 22.933 21.9315 21.4796C23.338 20.0262 24.1281 18.055 24.1281 15.9996C24.1281 13.9443 23.338 11.9731 21.9315 10.5197C20.5251 9.06632 18.6175 8.24982 16.6285 8.24982ZM16.6285 11.3497C17.2194 11.3496 17.8046 11.4698 18.3506 11.7034C18.8965 11.937 19.3926 12.2794 19.8106 12.7111C20.2285 13.1428 20.56 13.6554 20.7862 14.2195C21.0124 14.7836 21.1289 15.3882 21.129 15.9989C21.1291 16.6095 21.0128 17.2142 20.7868 17.7784C20.5608 18.3425 20.2294 18.8552 19.8116 19.2871C19.3938 19.7189 18.8978 20.0615 18.3519 20.2953C17.806 20.5291 17.2209 20.6494 16.63 20.6495C15.4366 20.6495 14.2921 20.1596 13.4482 19.2876C12.6043 18.4156 12.1302 17.2329 12.1302 15.9996C12.1302 14.7664 12.6043 13.5837 13.4482 12.7117C14.2921 11.8396 15.4366 11.3497 16.63 11.3497M24.5046 5.92487C24.0074 5.92487 23.5305 6.129 23.1789 6.49234C22.8272 6.85568 22.6297 7.34848 22.6297 7.86233C22.6297 8.37617 22.8272 8.86897 23.1789 9.23232C23.5305 9.59566 24.0074 9.79978 24.5046 9.79978C25.0019 9.79978 25.4788 9.59566 25.8304 9.23232C26.182 8.86897 26.3795 8.37617 26.3795 7.86233C26.3795 7.34848 26.182 6.85568 25.8304 6.49234C25.4788 6.129 25.0019 5.92487 24.5046 5.92487Z" fill="black"/>
</svg>
