<svg width="33" height="33" viewBox="0 0 33 33" fill="none" xmlns="http://www.w3.org/2000/svg">
<path fill-rule="evenodd" clip-rule="evenodd" d="M1.87013 10.2879C1.87013 22.2804 11.5603 32.0375 23.4705 32.0375C25.5206 32.0412 27.5019 31.2933 29.0445 29.9336C30.587 28.5739 31.5852 26.6953 31.8526 24.6487C31.9151 24.1306 31.8093 23.6061 31.551 23.1536C31.2928 22.7012 30.8961 22.345 30.4201 22.1384L23.3535 18.95L23.334 18.9409C22.9671 18.7829 22.5669 18.7195 22.1696 18.7565C21.7723 18.7934 21.3904 18.9295 21.0585 19.1524C21.0194 19.1784 20.9818 19.2066 20.946 19.237L17.2949 22.365C14.9819 21.2307 12.5938 18.8473 11.4703 16.5485L14.5933 12.8208C14.6233 12.7831 14.6518 12.7453 14.6788 12.7045C14.8951 12.37 15.0256 11.9868 15.0588 11.5891C15.0921 11.1914 15.027 10.7916 14.8694 10.4254V10.4073L11.7013 3.28578C11.4954 2.80739 11.1414 2.40888 10.6921 2.14973C10.2427 1.89058 9.72224 1.7847 9.20826 1.8479C7.17568 2.11721 5.30996 3.12231 3.95957 4.67548C2.60917 6.22865 1.86646 8.22367 1.87013 10.2879ZM9.49486 4.23097C8.05582 4.42871 6.73245 5.14405 5.77073 6.25019C4.80227 7.36407 4.26748 8.79769 4.27013 10.2837L4.27013 10.2879C4.27013 20.9705 12.9013 29.6375 23.4705 29.6375H23.4748C24.9371 29.6401 26.3529 29.1068 27.4574 28.1332C28.5571 27.1639 29.2735 25.8235 29.4701 24.3587C29.4703 24.3524 29.4687 24.3469 29.4666 24.3432C29.4654 24.3411 29.4639 24.3397 29.4639 24.3397L29.4488 24.3331L22.3991 21.1524L17.6566 25.2154L16.2382 24.5198C13.4509 23.153 10.6738 20.3844 9.31405 17.6023L8.62963 16.202L12.6671 11.3829C12.6668 11.3797 12.666 11.3768 12.6649 11.3743L12.4694 10.92V10.917L9.50256 4.24796L9.4968 4.23457L9.49486 4.23097Z" fill="black"/>
</svg>
