<svg width="32" height="33" viewBox="0 0 32 33" fill="none" xmlns="http://www.w3.org/2000/svg">
<path fill-rule="evenodd" clip-rule="evenodd" d="M21.4545 12.8427C21.4545 14.2893 20.8799 15.6767 19.8569 16.6996C18.834 17.7226 17.4466 18.2972 16 18.2972C14.5534 18.2972 13.166 17.7226 12.1431 16.6996C11.1201 15.6767 10.5455 14.2893 10.5455 12.8427C10.5455 11.396 11.1201 10.0087 12.1431 8.98574C13.166 7.96281 14.5534 7.38814 16 7.38814C17.4466 7.38814 18.834 7.96281 19.8569 8.98574C20.8799 10.0087 21.4545 11.396 21.4545 12.8427ZM18.7273 12.8427C18.7273 13.566 18.4399 14.2597 17.9285 14.7712C17.417 15.2826 16.7233 15.57 16 15.57C15.2767 15.57 14.583 15.2826 14.0715 14.7712C13.5601 14.2597 13.2727 13.566 13.2727 12.8427C13.2727 12.1194 13.5601 11.4257 14.0715 10.9142C14.583 10.4027 15.2767 10.1154 16 10.1154C16.7233 10.1154 17.417 10.4027 17.9285 10.9142C18.4399 11.4257 18.7273 12.1194 18.7273 12.8427Z" fill="black"/>
<path fill-rule="evenodd" clip-rule="evenodd" d="M16 1.93359C7.71591 1.93359 1 8.6495 1 16.9336C1 25.2177 7.71591 31.9336 16 31.9336C24.2841 31.9336 31 25.2177 31 16.9336C31 8.6495 24.2841 1.93359 16 1.93359ZM3.72727 16.9336C3.72727 19.7836 4.69955 22.4072 6.32909 24.4909C7.4735 22.988 8.94986 21.7701 10.6429 20.9322C12.3359 20.0943 14.1997 19.6592 16.0886 19.6609C17.9532 19.6591 19.7935 20.0829 21.4695 20.9001C23.1454 21.7173 24.6127 22.9062 25.7595 24.3763C26.9411 22.8267 27.7366 21.018 28.0803 19.0999C28.424 17.1817 28.306 15.2093 27.7361 13.3458C27.1662 11.4824 26.1608 9.78139 24.8029 8.38364C23.4451 6.9859 21.774 5.93158 19.9278 5.30792C18.0816 4.68426 16.1135 4.50919 14.1862 4.79719C12.2589 5.0852 10.4279 5.82799 8.84469 6.96412C7.26147 8.10025 5.97156 9.59705 5.08168 11.3307C4.19179 13.0643 3.72752 14.9849 3.72727 16.9336ZM16 29.2063C13.1827 29.2106 10.4504 28.2413 8.26545 26.4627C9.1449 25.2037 10.3155 24.1758 11.6775 23.4663C13.0396 22.7569 14.5529 22.387 16.0886 22.3881C17.6052 22.3869 19.1002 22.7476 20.4494 23.4401C21.7987 24.1326 22.9632 25.137 23.8464 26.37C21.6445 28.2064 18.8672 29.2103 16 29.2063Z" fill="black"/>
</svg>
