<svg width="1655" height="499" viewBox="0 0 1655 499" fill="none" xmlns="http://www.w3.org/2000/svg">
<path d="M119.506 262.024C129.792 262.024 138.221 260.81 144.792 258.381C151.507 255.81 156.864 252.453 160.865 248.309C164.865 244.166 167.651 239.452 169.222 234.166C170.794 228.737 171.579 223.165 171.579 217.451C171.579 211.165 170.651 205.522 168.794 200.521C166.936 195.521 163.936 191.307 159.793 187.878C155.65 184.306 150.221 181.592 143.507 179.735C136.935 177.877 128.792 176.949 119.077 176.949H64.4315V262.024H119.506ZM64.4315 49.2284V133.232H106.648C115.648 133.232 123.649 132.518 130.649 131.09C137.649 129.518 143.507 127.089 148.221 123.803C152.936 120.518 156.507 116.232 158.936 110.946C161.508 105.517 162.793 99.0166 162.793 91.4448C162.793 83.7301 161.722 77.1584 159.579 71.7295C157.579 66.3007 154.436 61.9433 150.15 58.6575C145.864 55.3716 140.435 53.0143 133.863 51.5857C127.292 50.0142 119.506 49.2284 110.505 49.2284H64.4315ZM110.505 0.368932C131.363 0.368932 149.15 2.36903 163.865 6.36922C178.723 10.2266 190.795 15.7983 200.081 23.0843C209.51 30.2275 216.367 38.9422 220.653 49.2284C224.939 59.5147 227.082 71.0152 227.082 83.7301C227.082 90.8733 226.011 97.7308 223.868 104.303C221.868 110.874 218.653 117.089 214.224 122.946C209.938 128.661 204.367 133.875 197.509 138.59C190.652 143.304 182.509 147.305 173.08 150.59C194.223 155.591 209.867 163.734 220.01 175.02C230.154 186.306 235.225 200.95 235.225 218.951C235.225 232.094 232.654 244.309 227.511 255.596C222.511 266.882 215.153 276.668 205.438 284.954C195.723 293.24 183.723 299.741 169.437 304.455C155.293 309.027 139.006 311.312 120.577 311.312H0.142641V0.368932H110.505ZM349.053 50.7285V130.661H452.773V179.306H349.053V260.953H482.346V311.312H284.336V0.368932H482.346V50.7285H349.053ZM694.592 193.235L660.948 98.0879C658.948 93.0877 656.805 87.2303 654.519 80.5157C652.376 73.801 650.305 66.515 648.304 58.6575C646.304 66.6579 644.161 74.0868 641.876 80.9443C639.733 87.6589 637.661 93.5163 635.661 98.5165L602.231 193.235H694.592ZM802.598 311.312H752.667C747.095 311.312 742.523 310.027 738.952 307.455C735.523 304.741 732.951 301.312 731.237 297.169L710.236 237.809H586.373L565.372 297.169C563.943 300.741 561.443 304.026 557.872 307.027C554.3 309.884 549.8 311.312 544.371 311.312H494.011L615.517 0.368932H681.306L802.598 311.312ZM950.716 259.881C961.145 259.881 970.503 258.167 978.789 254.738C987.075 251.167 994.076 246.167 999.79 239.738C1005.5 233.309 1009.86 225.523 1012.86 216.379C1015.86 207.236 1017.36 196.95 1017.36 185.521V0.368932H1081.65V185.521C1081.65 204.379 1078.58 221.737 1072.44 237.595C1066.44 253.31 1057.79 266.882 1046.51 278.311C1035.22 289.74 1021.51 298.669 1005.36 305.098C989.218 311.527 971.003 314.741 950.716 314.741C930.43 314.741 912.143 311.527 895.857 305.098C879.713 298.669 865.998 289.74 854.712 278.311C843.425 266.882 834.711 253.31 828.568 237.595C822.567 221.737 819.567 204.379 819.567 185.521V0.368932H883.856V185.521C883.856 196.95 885.356 207.236 888.356 216.379C891.356 225.523 895.714 233.309 901.428 239.738C907.143 246.167 914.143 251.167 922.429 254.738C930.715 258.167 940.144 259.881 950.716 259.881ZM1362.86 52.2286H1272V311.312H1207.49V52.2286H1116.63V0.368932H1362.86V52.2286ZM1542.02 191.735V311.312H1477.73V191.735L1364.79 0.368932H1421.37C1426.94 0.368932 1431.37 1.72614 1434.65 4.44057C1438.08 7.01212 1440.8 10.3694 1442.8 14.5125L1493.8 112.446C1497.23 119.018 1500.3 125.161 1503.01 130.875C1505.87 136.59 1508.37 142.304 1510.51 148.019C1512.51 142.304 1514.8 136.59 1517.37 130.875C1520.09 125.018 1523.09 118.875 1526.37 112.446L1576.95 14.5125C1578.66 11.0837 1581.23 7.8693 1584.66 4.86915C1588.09 1.86901 1592.52 0.368932 1597.95 0.368932H1654.95L1542.02 191.735ZM317.999 228.943C316.713 231.371 314.856 232.586 312.427 232.586C310.57 232.586 308.141 231.3 305.141 228.728C302.284 226.014 298.355 223.085 293.355 219.942C288.355 216.656 282.069 213.656 274.497 210.942C267.068 208.227 257.853 206.87 246.853 206.87C235.852 206.87 226.137 208.442 217.708 211.585C209.422 214.728 202.422 219.013 196.707 224.442C191.136 229.871 186.85 236.157 183.85 243.3C180.992 250.444 179.564 257.944 179.564 265.801C179.564 276.088 181.707 284.588 185.993 291.303C190.421 298.017 196.207 303.732 203.351 308.446C210.494 313.161 218.566 317.161 227.566 320.447C236.709 323.59 246.067 326.733 255.639 329.876C265.211 333.019 274.497 336.519 283.497 340.376C292.641 344.091 300.784 348.805 307.927 354.52C315.07 360.235 320.785 367.306 325.071 375.735C329.499 384.021 331.714 394.379 331.714 406.808C331.714 419.523 329.499 431.524 325.071 442.81C320.785 453.953 314.499 463.668 306.213 471.954C297.927 480.24 287.783 486.812 275.783 491.669C263.782 496.384 250.067 498.741 234.638 498.741C214.637 498.741 197.422 495.241 182.992 488.241C168.563 481.098 155.92 471.383 145.062 459.096L151.062 449.667C152.777 447.524 154.777 446.453 157.063 446.453C158.348 446.453 159.991 447.31 161.991 449.025C163.992 450.739 166.42 452.882 169.277 455.453C172.135 457.882 175.564 460.597 179.564 463.597C183.564 466.454 188.207 469.168 193.493 471.74C198.779 474.169 204.851 476.24 211.708 477.955C218.566 479.669 226.352 480.526 235.066 480.526C247.067 480.526 257.782 478.74 267.211 475.169C276.64 471.454 284.569 466.454 290.998 460.168C297.569 453.882 302.57 446.453 305.998 437.881C309.427 429.166 311.141 419.88 311.141 410.023C311.141 399.308 308.927 390.522 304.498 383.664C300.212 376.664 294.498 370.878 287.355 366.306C280.211 361.592 272.068 357.663 262.925 354.52C253.924 351.377 244.638 348.305 235.066 345.305C225.494 342.305 216.137 338.948 206.994 335.233C197.993 331.519 189.921 326.804 182.778 321.09C175.635 315.232 169.849 308.018 165.42 299.446C161.134 290.731 158.991 279.874 158.991 266.873C158.991 256.73 160.92 246.943 164.777 237.514C168.635 228.085 174.278 219.799 181.707 212.656C189.136 205.37 198.279 199.584 209.137 195.298C220.137 190.869 232.638 188.655 246.638 188.655C262.353 188.655 276.426 191.155 288.855 196.155C301.427 201.155 312.856 208.799 323.142 219.085L317.999 228.943ZM559.045 385.164L497.328 231.943C495.185 226.942 493.113 220.942 491.113 213.942C490.256 217.371 489.328 220.656 488.327 223.799C487.327 226.8 486.256 229.585 485.113 232.157L423.396 385.164H559.045ZM626.12 495.312H609.19C607.19 495.312 605.547 494.812 604.262 493.812C602.976 492.67 601.976 491.241 601.261 489.527L565.688 401.451H416.753L381.179 489.527C380.608 491.098 379.608 492.455 378.179 493.598C376.751 494.741 375.036 495.312 373.036 495.312H356.321L480.398 192.084H502.042L626.12 495.312ZM842.033 476.669V495.312H676.382V192.084H698.455V476.669H842.033ZM1144.14 343.591C1144.14 367.021 1140.64 388.307 1133.64 407.451C1126.64 426.452 1116.79 442.739 1104.07 456.311C1091.36 469.74 1076.07 480.169 1058.21 487.598C1040.5 494.884 1020.92 498.527 999.494 498.527C978.064 498.527 958.492 494.884 940.777 487.598C923.062 480.169 907.847 469.74 895.132 456.311C882.417 442.739 872.559 426.452 865.559 407.451C858.558 388.307 855.058 367.021 855.058 343.591C855.058 320.304 858.558 299.16 865.559 280.159C872.559 261.015 882.417 244.729 895.132 231.3C907.847 217.728 923.062 207.227 940.777 199.798C958.492 192.369 978.064 188.655 999.494 188.655C1020.92 188.655 1040.5 192.369 1058.21 199.798C1076.07 207.084 1091.36 217.513 1104.07 231.085C1116.79 244.658 1126.64 261.015 1133.64 280.159C1140.64 299.16 1144.14 320.304 1144.14 343.591ZM1121.43 343.591C1121.43 322.447 1118.5 303.446 1112.64 286.588C1106.78 269.73 1098.5 255.444 1087.78 243.729C1077.07 232.014 1064.21 223.085 1049.21 216.942C1034.21 210.656 1017.64 207.513 999.494 207.513C981.493 207.513 964.992 210.656 949.991 216.942C934.991 223.085 922.062 232.014 911.204 243.729C900.489 255.444 892.132 269.73 886.131 286.588C880.274 303.446 877.345 322.447 877.345 343.591C877.345 364.878 880.274 383.95 886.131 400.808C892.132 417.523 900.489 431.738 911.204 443.453C922.062 455.168 934.991 464.097 949.991 470.24C964.992 476.383 981.493 479.455 999.494 479.455C1017.64 479.455 1034.21 476.383 1049.21 470.24C1064.21 464.097 1077.07 455.168 1087.78 443.453C1098.5 431.738 1106.78 417.523 1112.64 400.808C1118.5 383.95 1121.43 364.878 1121.43 343.591ZM1447.81 192.084V495.312H1437.52C1435.66 495.312 1434.09 495.027 1432.81 494.455C1431.66 493.741 1430.52 492.598 1429.38 491.027L1232.44 227.871C1232.87 232.157 1233.08 236.229 1233.08 240.086V495.312H1213.8V192.084H1224.73C1226.73 192.084 1228.23 192.369 1229.23 192.941C1230.37 193.369 1231.58 194.441 1232.87 196.155L1429.38 458.668C1428.95 454.382 1428.74 450.31 1428.74 446.453V192.084H1447.81Z" fill="#E1E5EF" fill-opacity="0.3"/>
</svg>
