<svg width="121" height="120" viewBox="0 0 121 120" fill="none" xmlns="http://www.w3.org/2000/svg">
<path fill-rule="evenodd" clip-rule="evenodd" d="M89.2964 52.2412C97.1189 56.8578 101.992 68.0145 101.992 68.2709C103.787 72.7593 104.813 77.8888 104.813 83.0183C104.813 92.2514 101.864 100.843 96.3495 107.512C96.4778 107.896 96.4778 108.409 96.4778 108.794C96.4778 113.795 92.3741 117.771 87.5011 117.771H60.443C58.7775 117.771 57.2258 117.316 55.8968 116.529C54.7458 117.313 53.3535 117.771 51.8513 117.771H30.0508C26.0755 117.771 22.8695 114.565 22.8695 110.589C22.8695 110.397 22.9016 110.237 22.9337 110.076C22.9657 109.916 22.9978 109.756 22.9978 109.563C18.6377 104.177 16.2012 97.2525 16.2012 89.8147C16.2012 85.5828 17.0988 81.6075 18.5095 77.8886C18.5095 77.6321 21.7154 69.0402 28.8967 64.8083V33.5183C28.8967 28.6453 32.8721 24.6699 37.7451 24.6699H44.6699C49.543 24.6699 53.5183 28.6453 53.5183 33.5183V56.3319C55.0549 54.7331 56.8445 53.2205 58.9041 51.9848V13.1287C58.9041 7.10155 63.7771 2.22852 69.8043 2.22852H78.3962C84.4234 2.22852 89.2964 7.10155 89.2964 13.1287V52.2412ZM59.0273 110.868C59.4343 111.173 59.9283 111.359 60.443 111.359H87.3729C88.6553 111.359 89.8094 110.333 89.8094 108.922C89.8094 108.666 89.8094 108.281 89.6812 108.025C89.1682 106.87 89.4247 105.46 90.3223 104.562C95.3236 99.048 98.2731 91.2255 98.1449 83.1465C98.1449 79.4276 97.6319 75.837 96.4778 72.5028H77.1139V100.972C77.1139 102.767 75.7032 104.178 73.9079 104.178C72.1126 104.178 70.702 102.767 70.702 100.972V72.5028H60.8374C62.7213 75.3717 63.7774 77.8225 63.7774 77.8886C65.3162 81.6075 66.0856 85.7111 65.7009 89.8147C65.7009 97.2525 63.2644 104.177 58.9043 109.563C59.0326 109.948 59.0326 110.204 59.0326 110.589C59.0326 110.682 59.0308 110.775 59.0273 110.868ZM47.7238 64.4236H34.2827V33.6466C34.2827 31.723 35.8215 30.0559 37.8733 30.0559H44.7982C46.7218 30.0559 48.3888 31.5948 48.3888 33.6466V63.2314C48.1486 63.6457 47.9271 64.0446 47.7238 64.4236ZM45.3874 69.6814C44.7727 71.4617 44.2724 73.2953 43.9005 75.175V69.6814H45.3874ZM50.2849 76.0933C50.5387 74.8687 50.8507 73.67 51.2098 72.5028H54.3395C55.3511 73.5894 56.2631 74.7918 57.109 76.0933H50.2849ZM49.5993 81.2228H59.289C60.1867 83.9158 60.6997 86.737 60.6997 89.8147C60.7993 94.8955 59.4284 99.8215 56.8877 103.871C52.2549 98.405 49.5427 90.8937 49.5427 83.1465C49.5427 82.5012 49.5621 81.8597 49.5993 81.2228ZM43.7723 90.3538C44.9167 96.7644 47.5738 102.649 51.5945 107.512C51.5945 107.704 51.5625 107.928 51.5304 108.153C51.4984 108.377 51.4663 108.602 51.4663 108.794C51.4663 110.109 51.7557 111.367 52.2765 112.505C52.2207 112.51 52.1644 112.513 52.1077 112.513H30.3073C29.2814 112.513 28.3838 111.615 28.3838 110.589C28.3838 110.333 28.3838 110.076 28.512 109.82C28.8967 108.922 28.6402 107.768 27.999 107.127C23.8954 102.638 21.5872 96.3548 21.5872 89.8147C21.5872 86.8652 22.1001 83.9158 22.9978 81.2228H38.6428V104.049C38.6428 105.46 39.7969 106.614 41.2075 106.614C42.6181 106.614 43.7723 105.46 43.7723 104.049V90.3538ZM54.8608 65.8344H70.8302V57.8837H61.7253C58.8646 59.8738 56.3657 62.4671 54.4628 65.5466C54.5967 65.6403 54.7293 65.7363 54.8608 65.8344ZM69.8043 8.6404C67.2396 8.6404 65.316 10.6922 65.316 13.1287V51.4718H82.8846V13.1287C82.8846 10.6922 80.8328 8.6404 78.3962 8.6404H69.8043ZM77.2421 65.9627H93.6565C91.6047 62.7567 89.1682 60.0637 86.0905 58.0119H77.2421V65.9627ZM38.771 76.0933V69.6814H31.4615C29.0249 71.3485 26.9731 73.5285 25.4343 76.0933H38.771Z" fill="#4C4D56"/>
</svg>
