<svg width="121" height="120" viewBox="0 0 121 120" fill="none" xmlns="http://www.w3.org/2000/svg">
<path d="M41.1364 19.8426C42.4235 19.8426 43.3245 18.8129 43.3245 17.5258C43.3245 16.2388 42.2948 15.2091 41.1364 15.2091H24.7904V13.021H41.1364C43.3245 13.021 43.3245 10.5756 43.3245 10.5756C43.3245 5.68464 38.3049 1.17983 32.7704 1.17983H18.0976C12.5631 1.30854 7.54346 5.81335 7.54346 10.7043V110.196C7.54346 114.958 11.4047 118.82 16.1669 118.82C20.9292 118.82 24.7904 114.958 24.7904 110.196V70.6826H32.7704C38.3049 70.6826 43.3245 66.1778 43.3245 61.2868C43.3245 61.2868 43.3245 58.8414 41.1364 58.8414H24.7904V56.6533H41.1364C42.4235 56.6533 43.3245 55.6237 43.3245 54.3366C43.3245 53.0495 42.2948 52.0198 41.1364 52.0198H24.7904V49.1882H41.1364C42.4235 49.1882 43.3245 48.1585 43.3245 46.8714C43.3245 45.5844 42.2948 44.5547 41.1364 44.5547H24.7904V41.7231H41.1364C42.4235 41.7231 43.3245 40.6934 43.3245 39.4063C43.3245 38.1193 42.2948 37.0896 41.1364 37.0896H24.7904V34.5154H41.1364C42.4235 34.5154 43.3245 33.4857 43.3245 32.1986C43.3245 30.9116 42.2948 29.8819 41.1364 29.8819H24.7904V27.0503H41.1364C42.4235 27.0503 43.3245 26.0206 43.3245 24.7335C43.3245 23.4464 42.2948 22.4168 41.1364 22.4168H24.7904V19.5852H41.1364V19.8426ZM32.8991 66.1778H22.6024C21.3153 66.1778 20.4143 67.2074 20.4143 68.4945V110.325C20.4143 112.642 18.6124 114.444 16.2957 114.444C13.9789 114.444 12.177 112.642 12.177 110.325V10.7043C12.177 8.51623 15.0086 5.81335 18.2263 5.81335H32.8991C35.2158 5.81335 37.2752 7.10044 38.3049 8.64494H22.6024C21.3153 8.64494 20.4143 9.67461 20.4143 10.9617V61.0294C20.4143 62.3165 21.444 63.3462 22.6024 63.3462H38.3049C37.1465 64.8907 35.0871 66.1778 32.8991 66.1778Z" fill="#4C4D56"/>
<path d="M94.7563 110.84C101.063 110.84 106.083 105.691 106.083 99.5132C106.083 93.2064 100.934 88.1868 94.7563 88.1868C88.5783 88.1868 83.4299 93.3351 83.4299 99.5132C83.4299 105.82 88.4496 110.84 94.7563 110.84ZM94.7563 93.4638C98.1027 93.4638 100.806 96.1667 100.806 99.5132C100.806 102.86 98.1027 105.562 94.7563 105.562C91.4099 105.562 88.707 102.86 88.707 99.5132C88.707 96.1667 91.4099 93.4638 94.7563 93.4638Z" fill="#4C4D56"/>
<path d="M56.659 88.1868C50.3523 88.1868 45.3326 93.3351 45.3326 99.5132C45.3326 105.82 50.481 110.84 56.659 110.84C62.837 110.84 67.9854 105.691 67.9854 99.5132C68.1141 93.2064 62.9657 88.1868 56.659 88.1868ZM50.7384 99.5132C50.7384 96.1667 53.4413 93.4638 56.7877 93.4638C60.1341 93.4638 62.837 96.1667 62.837 99.5132C62.837 102.86 60.1341 105.562 56.7877 105.562C53.4413 105.562 50.7384 102.86 50.7384 99.5132Z" fill="#4C4D56"/>
<path d="M94.7565 81.3653C94.4991 81.3653 93.8556 81.3653 93.8556 81.3653C88.0637 80.8504 86.2618 70.8111 86.133 70.0389L83.6876 33.6143V22.5453C83.6876 22.2879 83.6876 22.0305 83.5589 21.7731L78.2818 3.11032C77.8957 1.95194 76.866 1.17969 75.7076 1.17969C74.5493 1.17969 73.5196 1.95194 73.1335 3.11032L67.8564 21.7731C67.7277 22.0305 67.7277 22.2879 67.7277 22.5453V33.743C67.8564 44.812 68.3712 45.9703 68.6287 46.4852C68.6287 46.6139 68.7574 46.6139 68.7574 46.7426L65.2822 70.0389C65.2822 70.1676 63.609 81.1078 57.431 81.494C57.1736 81.494 56.9162 81.494 56.7874 81.494C46.7482 81.494 38.6395 89.6026 38.6395 99.6419C38.6395 109.681 46.7482 117.79 56.7874 117.79C66.0545 117.79 73.9057 110.84 74.8067 101.573L75.8363 91.7907C75.8363 92.1768 76.866 101.058 76.866 101.058C77.6383 110.453 85.4895 117.79 94.8852 117.79C104.925 117.79 113.033 109.681 113.033 99.6419C112.904 89.4739 104.667 81.3653 94.7565 81.3653ZM75.7076 46.7426C74.8067 45.9703 73.5196 44.4258 73.5196 44.4258C73.3909 43.3962 73.1335 39.921 73.1335 36.3172H78.5392L80.856 70.5537C80.9847 71.1973 82.9153 85.8701 93.4694 86.6423C93.5982 86.6423 94.3704 86.6423 94.6278 86.6423C101.707 86.6423 107.37 92.4342 107.37 99.3845C107.37 106.463 101.578 112.127 94.6278 112.127C87.935 112.127 82.4005 106.978 81.8857 100.285C81.8857 100.157 78.2818 65.6628 76.4799 48.2871C76.4799 47.901 76.2225 47.2574 75.7076 46.7426ZM69.4009 100.8C68.7574 107.364 63.2229 112.255 56.6587 112.255C49.5798 112.255 43.9166 106.463 43.9166 99.5132C43.9166 92.4342 49.7085 86.771 56.6587 86.771C56.9162 86.771 57.431 86.771 57.5597 86.771C68.2425 86.2562 70.4306 71.5834 70.5593 70.6824L72.3612 58.5838C72.6186 60.7718 72.876 63.346 73.1335 65.9202L69.4009 100.8ZM73.1335 22.9315L75.8363 13.5357L78.5392 22.9315V31.0401H73.2622V22.9315H73.1335Z" fill="#4C4D56"/>
<path d="M78.6678 39.6637C78.6678 39.0201 78.4104 38.2479 77.8956 37.733C77.3807 37.2182 76.7372 36.9608 75.9649 36.9608C75.3214 36.9608 74.5491 37.2182 74.0343 37.733C73.5195 38.2479 73.262 38.8914 73.262 39.6637C73.262 40.3072 73.5195 41.0795 74.0343 41.5943C74.5491 42.1091 75.1927 42.3666 75.9649 42.3666C76.6085 42.3666 77.3807 42.1091 77.8956 41.5943C78.4104 40.9508 78.6678 40.3072 78.6678 39.6637Z" fill="#4C4D56"/>
</svg>
