<svg width="33" height="33" viewBox="0 0 33 33" fill="none" xmlns="http://www.w3.org/2000/svg">
<path d="M20.5451 16.935L30.6359 6.84137C30.9085 6.57805 31.126 6.26306 31.2756 5.9148C31.4252 5.56653 31.5039 5.19196 31.5072 4.81294C31.5105 4.43391 31.4383 4.05803 31.2948 3.70722C31.1512 3.3564 30.9393 3.03769 30.6713 2.76967C30.4032 2.50165 30.0845 2.28969 29.7337 2.14616C29.3829 2.00263 29.007 1.93041 28.628 1.9337C28.249 1.937 27.8744 2.01574 27.5261 2.16534C27.1779 2.31495 26.8629 2.53241 26.5996 2.80505L16.5059 12.8958L6.4151 2.80505C6.15178 2.53241 5.83679 2.31495 5.48853 2.16534C5.14026 2.01574 4.76569 1.937 4.38667 1.9337C4.00764 1.93041 3.63176 2.00263 3.28095 2.14616C2.93013 2.28969 2.61142 2.50165 2.3434 2.76967C2.07538 3.03769 1.86342 3.3564 1.71989 3.70722C1.57636 4.05803 1.50414 4.43391 1.50743 4.81294C1.51073 5.19196 1.58947 5.56653 1.73908 5.9148C1.88868 6.26306 2.10614 6.57805 2.37878 6.84137L12.4696 16.9322L2.37878 27.0258C2.10614 27.2891 1.88868 27.6041 1.73908 27.9524C1.58947 28.3007 1.51073 28.6752 1.50743 29.0543C1.50414 29.4333 1.57636 29.8092 1.71989 30.16C1.86342 30.5108 2.07538 30.8295 2.3434 31.0975C2.61142 31.3655 2.93013 31.5775 3.28095 31.721C3.63176 31.8646 4.00764 31.9368 4.38667 31.9335C4.76569 31.9302 5.14026 31.8514 5.48853 31.7018C5.83679 31.5522 6.15178 31.3348 6.4151 31.0621L16.5059 20.9713L26.5996 31.0621C26.8629 31.3348 27.1779 31.5522 27.5261 31.7018C27.8744 31.8514 28.249 31.9302 28.628 31.9335C29.007 31.9368 29.3829 31.8646 29.7337 31.721C30.0845 31.5775 30.4032 31.3655 30.6713 31.0975C30.9393 30.8295 31.1512 30.5108 31.2948 30.16C31.4383 29.8092 31.5105 29.4333 31.5072 29.0543C31.5039 28.6752 31.4252 28.3007 31.2756 27.9524C31.126 27.6041 30.9085 27.2891 30.6359 27.0258L20.5451 16.935Z" fill="black"/>
</svg>
