<svg width="33" height="33" viewBox="0 0 33 33" fill="none" xmlns="http://www.w3.org/2000/svg">
<path d="M7.5945 8.51856H30.7012C30.9505 8.51856 31.1896 8.61706 31.3658 8.7924C31.5421 8.96774 31.6411 9.20555 31.6411 9.45351V24.4129C31.6411 24.6608 31.5421 24.8986 31.3658 25.074C31.1896 25.2493 30.9505 25.3478 30.7012 25.3478H7.5945C7.43964 25.348 7.28714 25.3101 7.15055 25.2375C7.01396 25.1649 6.89752 25.0599 6.81157 24.9318L1.79915 17.4521C1.69611 17.2985 1.64111 17.1179 1.64111 16.9332C1.64111 16.7485 1.69611 16.5679 1.79915 16.4143L6.81157 8.93461C6.89752 8.80647 7.01396 8.70144 7.15055 8.62885C7.28714 8.55627 7.43964 8.51838 7.5945 8.51856ZM8.09734 10.3885L3.71089 16.9332L8.09734 23.4779H29.7623V10.3885H8.09734ZM18.7928 15.6112L21.4508 12.9662L22.7798 14.2891L20.1209 16.9332L22.7798 19.5773L21.4508 20.9002L18.7919 18.2552L16.1339 20.9002L14.8049 19.5773L17.4629 16.9332L14.8049 14.2891L16.1339 12.9662L18.7919 15.6112H18.7928Z" fill="black"/>
</svg>
