<svg width="32" height="32" viewBox="0 0 32 32" fill="none" xmlns="http://www.w3.org/2000/svg">
<path fill-rule="evenodd" clip-rule="evenodd" d="M13.1312 5.43164H18.8688C21.4335 5.43164 23.4651 5.43164 25.0544 5.61644C26.6898 5.80727 28.014 6.20826 29.0591 7.1117C30.1028 8.01635 30.566 9.16256 30.7865 10.5781C31 11.955 31 13.7124 31 15.9323V16.0676C31 18.2876 31 20.0461 30.7865 21.4218C30.566 22.8374 30.1028 23.9836 29.0591 24.8882C28.014 25.7917 26.6898 26.1927 25.0544 26.3835C23.4637 26.5683 21.4335 26.5683 18.8688 26.5683H13.1312C10.5665 26.5683 8.53488 26.5683 6.94558 26.3835C5.31023 26.1927 3.98605 25.7917 2.94093 24.8882C1.89721 23.9836 1.43395 22.8374 1.21349 21.4218C1 20.0449 1 18.2876 1 16.0676V15.9323C1 13.7124 1 11.9538 1.21349 10.5781C1.43395 9.16256 1.89721 8.01635 2.94093 7.1117C3.98605 6.20826 5.31023 5.80727 6.94558 5.61644C8.53628 5.43164 10.5665 5.43164 13.1312 5.43164ZM7.22326 7.41245C5.81953 7.5755 5.01023 7.88228 4.4186 8.39319C3.82977 8.90409 3.47535 9.60462 3.28698 10.8197C3.09442 12.0613 3.09163 13.6967 3.09163 16C3.09163 18.3033 3.09442 19.9386 3.28698 21.1815C3.47535 22.3953 3.82977 23.0958 4.42 23.6067C5.01023 24.1177 5.81953 24.4244 7.22326 24.5875C8.65767 24.7542 10.547 24.7566 13.2079 24.7566H18.7893C21.4502 24.7566 23.3409 24.7542 24.7753 24.5875C26.1777 24.4244 26.987 24.1177 27.5772 23.6067C28.1674 23.0958 28.5219 22.3953 28.7102 21.1803C28.9028 19.9386 28.9056 18.3033 28.9056 16C28.9056 13.6967 28.9028 12.0613 28.7102 10.8185C28.5219 9.60462 28.1674 8.90409 27.5772 8.39319C26.987 7.88228 26.1777 7.5755 24.774 7.41245C23.3409 7.24577 21.4502 7.24335 18.7893 7.24335H13.2079C10.547 7.24335 8.65907 7.24577 7.22326 7.41245ZM6.82279 10.589C7.00047 10.4045 7.25549 10.2887 7.5318 10.267C7.80811 10.2452 8.08309 10.3193 8.29628 10.473L11.3116 12.6459C12.6135 13.5843 13.5163 14.2342 14.2809 14.6593C15.0191 15.07 15.52 15.2089 16.0014 15.2089C16.4828 15.2089 16.9837 15.0712 17.7219 14.6593C18.4851 14.2342 19.3893 13.5843 20.6912 12.6459L23.7037 10.4718C23.8094 10.3957 23.9313 10.3383 24.0625 10.303C24.1938 10.2676 24.3318 10.255 24.4687 10.2658C24.6056 10.2766 24.7387 10.3107 24.8604 10.366C24.982 10.4214 25.09 10.4969 25.1779 10.5884C25.2659 10.6798 25.3321 10.7854 25.373 10.899C25.4138 11.0126 25.4284 11.1321 25.4159 11.2505C25.4034 11.369 25.364 11.4842 25.3001 11.5896C25.2362 11.6949 25.1489 11.7883 25.0433 11.8644L21.9791 14.0747C20.7414 14.9685 19.7395 15.6908 18.8535 16.1836C17.9326 16.6969 17.0353 17.0206 16.0014 17.0206C14.9674 17.0206 14.0702 16.6957 13.1479 16.1836C12.2633 15.6908 11.2614 14.9673 10.0237 14.0759L6.95814 11.8656C6.85242 11.7895 6.76509 11.696 6.70114 11.5906C6.63719 11.4852 6.59786 11.3699 6.58542 11.2513C6.57298 11.1328 6.58767 11.0132 6.62863 10.8996C6.6696 10.7859 6.73466 10.6804 6.82279 10.589Z" fill="black"/>
</svg>
