<svg width="33" height="32" viewBox="0 0 33 32" fill="none" xmlns="http://www.w3.org/2000/svg">
<path d="M28.6367 13.6498H27.6701V13.6H16.8701V18.4H23.6519C22.6625 21.1942 20.0039 23.2 16.8701 23.2C12.8939 23.2 9.67012 19.9762 9.67012 16C9.67012 12.0238 12.8939 8.8 16.8701 8.8C18.7055 8.8 20.3753 9.4924 21.6467 10.6234L25.0409 7.2292C22.8977 5.2318 20.0309 4 16.8701 4C10.2431 4 4.87012 9.373 4.87012 16C4.87012 22.627 10.2431 28 16.8701 28C23.4971 28 28.8701 22.627 28.8701 16C28.8701 15.1954 28.7873 14.41 28.6367 13.6498Z" fill="#FFC107"/>
<path d="M6.25372 10.4146L10.1963 13.306C11.2631 10.6648 13.8467 8.8 16.8701 8.8C18.7055 8.8 20.3753 9.4924 21.6467 10.6234L25.0409 7.2292C22.8977 5.2318 20.0309 4 16.8701 4C12.2609 4 8.26372 6.6022 6.25372 10.4146Z" fill="#FF3D00"/>
<path d="M16.8701 28C19.9697 28 22.7861 26.8138 24.9155 24.8848L21.2015 21.742C19.9562 22.689 18.4346 23.2012 16.8701 23.2C13.7489 23.2 11.0987 21.2098 10.1003 18.4324L6.18712 21.4474C8.17312 25.3336 12.2063 28 16.8701 28Z" fill="#4CAF50"/>
<path d="M28.6367 13.6498H27.6701V13.6H16.8701V18.4H23.6519C23.1786 19.7298 22.3261 20.8919 21.1997 21.7426L21.2015 21.742L24.9155 24.8848C24.6527 25.1236 28.8701 22 28.8701 16C28.8701 15.1954 28.7873 14.41 28.6367 13.6498Z" fill="#1976D2"/>
</svg>
