<svg width="222" height="67" viewBox="0 0 222 67" fill="none" xmlns="http://www.w3.org/2000/svg">
<path d="M16.2231 35.7076C17.5999 35.7076 18.728 35.5451 19.6076 35.22C20.5063 34.8758 21.2234 34.4265 21.7588 33.872C22.2942 33.3174 22.6671 32.6864 22.8774 31.9789C23.0878 31.2523 23.1929 30.5066 23.1929 29.7417C23.1929 28.9004 23.0686 28.1451 22.8201 27.4758C22.5715 26.8066 22.1699 26.2425 21.6154 25.7835C21.0609 25.3055 20.3342 24.9422 19.4355 24.6936C18.5559 24.445 17.466 24.3208 16.1658 24.3208H8.85176V35.7076H16.2231ZM8.85176 7.22609V18.4696H14.5022C15.7068 18.4696 16.7776 18.374 17.7146 18.1827C18.6516 17.9724 19.4355 17.6473 20.0665 17.2075C20.6976 16.7677 21.1756 16.1941 21.5007 15.4866C21.8449 14.76 22.0169 13.8899 22.0169 12.8765C22.0169 11.8439 21.8735 10.9644 21.5867 10.2377C21.319 9.51112 20.8983 8.92791 20.3247 8.48811C19.751 8.04832 19.0244 7.73281 18.1448 7.5416C17.2652 7.33126 16.2231 7.22609 15.0185 7.22609H8.85176ZM15.0185 0.686523C17.8102 0.686523 20.1908 0.954225 22.1604 1.48963C24.149 2.00591 25.7648 2.75165 27.0077 3.72685C28.2697 4.68293 29.1875 5.84934 29.7612 7.22609C30.3348 8.60284 30.6216 10.1421 30.6216 11.8439C30.6216 12.8 30.4782 13.7179 30.1914 14.5974C29.9237 15.477 29.4935 16.3088 28.9007 17.0928C28.3271 17.8577 27.5813 18.5556 26.6635 19.1866C25.7456 19.8176 24.6557 20.353 23.3937 20.7928C26.2237 21.4621 28.3175 22.552 29.6751 24.0626C31.0328 25.5732 31.7116 27.5332 31.7116 29.9425C31.7116 31.7017 31.3674 33.3366 30.679 34.8472C30.0098 36.3578 29.025 37.6676 27.7247 38.7766C26.4245 39.8857 24.8183 40.7557 22.9061 41.3867C21.0131 41.9986 18.8332 42.3046 16.3665 42.3046H0.24707V0.686523H15.0185Z" fill="#292A2C"/>
<path d="M46.9468 7.42687V18.1254H60.829V24.6363H46.9468V35.5642H64.7872V42.3046H38.2847V0.686523H64.7872V7.42687H46.9468Z" fill="#292A2C"/>
<path d="M93.1952 26.5006L88.6921 13.7657C88.4244 13.0964 88.1376 12.3124 87.8316 11.4137C87.5448 10.515 87.2676 9.5398 86.9999 8.48811C86.7322 9.55892 86.4453 10.5532 86.1394 11.4711C85.8526 12.3698 85.5753 13.1538 85.3076 13.823L80.8332 26.5006H93.1952ZM107.651 42.3046H100.968C100.222 42.3046 99.6105 42.1325 99.1325 41.7883C98.6736 41.425 98.3294 40.9661 98.0999 40.4115L95.289 32.4665H78.7107L75.8998 40.4115C75.7086 40.8896 75.374 41.3294 74.8959 41.7309C74.4179 42.1133 73.8156 42.3046 73.0889 42.3046H66.3486L82.6115 0.686523H91.4169L107.651 42.3046Z" fill="#292A2C"/>
<path d="M127.476 35.4208C128.872 35.4208 130.124 35.1913 131.233 34.7324C132.342 34.2544 133.279 33.5851 134.044 32.7247C134.809 31.8642 135.392 30.8221 135.794 29.5983C136.195 28.3745 136.396 26.9978 136.396 25.468V0.686523H145.001V25.468C145.001 27.9921 144.59 30.3154 143.768 32.4378C142.964 34.5412 141.808 36.3578 140.297 37.8875C138.786 39.4172 136.951 40.6123 134.79 41.4728C132.629 42.3332 130.191 42.7635 127.476 42.7635C124.761 42.7635 122.313 42.3332 120.133 41.4728C117.973 40.6123 116.137 39.4172 114.626 37.8875C113.116 36.3578 111.949 34.5412 111.127 32.4378C110.324 30.3154 109.922 27.9921 109.922 25.468V0.686523H118.527V25.468C118.527 26.9978 118.728 28.3745 119.129 29.5983C119.531 30.8221 120.114 31.8642 120.879 32.7247C121.644 33.5851 122.581 34.2544 123.69 34.7324C124.799 35.1913 126.061 35.4208 127.476 35.4208Z" fill="#292A2C"/>
<path d="M182.639 7.62764H170.477V42.3046H161.844V7.62764H149.683V0.686523H182.639V7.62764Z" fill="#292A2C"/>
<path d="M206.618 26.2998V42.3046H198.013V26.2998L182.898 0.686523H190.47C191.216 0.686523 191.808 0.868179 192.248 1.23149C192.707 1.57568 193.07 2.02503 193.338 2.57956L200.165 15.6874C200.623 16.567 201.035 17.3892 201.398 18.1541C201.78 18.9189 202.115 19.6838 202.402 20.4486C202.669 19.6838 202.975 18.9189 203.32 18.1541C203.683 17.3701 204.084 16.5478 204.524 15.6874L211.293 2.57956C211.523 2.12064 211.867 1.69041 212.326 1.28885C212.785 0.8873 213.378 0.686523 214.104 0.686523H221.734L206.618 26.2998Z" fill="#292A2C"/>
<path d="M42.7903 30.6524C42.6182 30.9775 42.3697 31.14 42.0446 31.14C41.796 31.14 41.4709 30.968 41.0694 30.6238C40.687 30.2605 40.1611 29.8685 39.4919 29.4478C38.8226 29.008 37.9813 28.6064 36.9678 28.2431C35.9735 27.8798 34.7402 27.6982 33.2678 27.6982C31.7954 27.6982 30.4952 27.9085 29.367 28.3292C28.258 28.7499 27.321 29.3235 26.5561 30.0501C25.8104 30.7767 25.2368 31.6181 24.8352 32.5742C24.4528 33.5302 24.2616 34.5341 24.2616 35.5858C24.2616 36.9626 24.5484 38.1003 25.122 38.999C25.7148 39.8977 26.4892 40.6626 27.4453 41.2936C28.4014 41.9246 29.4817 42.46 30.6864 42.8998C31.9102 43.3205 33.1626 43.7411 34.4438 44.1618C35.7249 44.5825 36.9678 45.051 38.1725 45.5672C39.3963 46.0644 40.4862 46.6954 41.4423 47.4603C42.3983 48.2251 43.1632 49.1717 43.7368 50.2998C44.3296 51.4089 44.626 52.7952 44.626 54.4588C44.626 56.1606 44.3296 57.7668 43.7368 59.2774C43.1632 60.7689 42.3219 62.0691 41.2128 63.1782C40.1038 64.2872 38.7461 65.1668 37.1399 65.817C35.5337 66.448 33.698 66.7635 31.6329 66.7635C28.9559 66.7635 26.6518 66.295 24.7205 65.358C22.7892 64.402 21.0969 63.1017 19.6437 61.4572L20.4468 60.1952C20.6763 59.9084 20.944 59.765 21.2499 59.765C21.422 59.765 21.6419 59.8797 21.9096 60.1092C22.1773 60.3386 22.5024 60.6255 22.8848 60.9697C23.2672 61.2947 23.7262 61.658 24.2616 62.0596C24.797 62.442 25.4184 62.8053 26.1259 63.1495C26.8334 63.4746 27.6461 63.7518 28.5639 63.9813C29.4817 64.2108 30.5239 64.3255 31.6903 64.3255C33.2965 64.3255 34.7306 64.0865 35.9926 63.6084C37.2546 63.1113 38.3159 62.442 39.1764 61.6007C40.056 60.7593 40.7252 59.765 41.1841 58.6177C41.643 57.4513 41.8725 56.2084 41.8725 54.889C41.8725 53.4549 41.5761 52.2789 40.9833 51.3611C40.4097 50.4241 39.6448 49.6497 38.6888 49.0378C37.7327 48.4068 36.6428 47.881 35.419 47.4603C34.2143 47.0396 32.9714 46.6285 31.6903 46.2269C30.4091 45.8254 29.1567 45.376 27.9329 44.8789C26.7282 44.3817 25.6479 43.7507 24.6918 42.9858C23.7357 42.2019 22.9613 41.2362 22.3685 40.0889C21.7949 38.9225 21.5081 37.4693 21.5081 35.7292C21.5081 34.3716 21.7662 33.0618 22.2825 31.7997C22.7988 30.5377 23.5541 29.4287 24.5484 28.4726C25.5427 27.4974 26.7665 26.723 28.2197 26.1493C29.6921 25.5566 31.3652 25.2602 33.2391 25.2602C35.3425 25.2602 37.226 25.5948 38.8895 26.2641C40.5722 26.9333 42.102 27.9563 43.4787 29.3331L42.7903 30.6524Z" fill="#292A2C"/>
<path d="M75.053 51.5619L66.7925 31.054C66.5057 30.3847 66.2284 29.5816 65.9607 28.6447C65.846 29.1036 65.7217 29.5434 65.5878 29.9641C65.454 30.3656 65.3106 30.7385 65.1576 31.0827L56.8971 51.5619H75.053ZM84.0306 66.3046H81.7647C81.497 66.3046 81.2771 66.2376 81.105 66.1038C80.9329 65.9508 80.799 65.7596 80.7034 65.5301L75.9422 53.7417H56.0079L51.2467 65.5301C51.1702 65.7405 51.0363 65.9221 50.8451 66.0751C50.6539 66.2281 50.4245 66.3046 50.1568 66.3046H47.9195L64.5266 25.7191H67.4235L84.0306 66.3046Z" fill="#292A2C"/>
<path d="M112.929 63.8092V66.3046H90.7579V25.7191H93.7122V63.8092H112.929Z" fill="#292A2C"/>
<path d="M153.365 45.9975C153.365 49.1334 152.897 51.9825 151.96 54.5448C151.023 57.088 149.703 59.2678 148.002 61.0844C146.3 62.8818 144.254 64.2777 141.864 65.272C139.492 66.2472 136.873 66.7348 134.005 66.7348C131.136 66.7348 128.517 66.2472 126.146 65.272C123.775 64.2777 121.738 62.8818 120.036 61.0844C118.334 59.2678 117.015 57.088 116.078 54.5448C115.141 51.9825 114.673 49.1334 114.673 45.9975C114.673 42.8807 115.141 40.0507 116.078 37.5075C117.015 34.9452 118.334 32.7654 120.036 30.9679C121.738 29.1514 123.775 27.746 126.146 26.7516C128.517 25.7573 131.136 25.2602 134.005 25.2602C136.873 25.2602 139.492 25.7573 141.864 26.7516C144.254 27.7268 146.3 29.1227 148.002 30.9393C149.703 32.7558 151.023 34.9452 151.96 37.5075C152.897 40.0507 153.365 42.8807 153.365 45.9975ZM150.325 45.9975C150.325 43.1675 149.933 40.6243 149.149 38.368C148.365 36.1116 147.256 34.1995 145.822 32.6315C144.388 31.0636 142.667 29.8685 140.659 29.0462C138.651 28.2049 136.433 27.7842 134.005 27.7842C131.595 27.7842 129.387 28.2049 127.379 29.0462C125.371 29.8685 123.641 31.0636 122.187 32.6315C120.753 34.1995 119.635 36.1116 118.832 38.368C118.048 40.6243 117.656 43.1675 117.656 45.9975C117.656 48.8466 118.048 51.3993 118.832 53.6557C119.635 55.8929 120.753 57.7955 122.187 59.3634C123.641 60.9314 125.371 62.1265 127.379 62.9487C129.387 63.771 131.595 64.1821 134.005 64.1821C136.433 64.1821 138.651 63.771 140.659 62.9487C142.667 62.1265 144.388 60.9314 145.822 59.3634C147.256 57.7955 148.365 55.8929 149.149 53.6557C149.933 51.3993 150.325 48.8466 150.325 45.9975Z" fill="#292A2C"/>
<path d="M194.009 25.7191V66.3046H192.632C192.384 66.3046 192.173 66.2663 192.001 66.1898C191.848 66.0942 191.695 65.9412 191.542 65.7309L165.183 30.509C165.241 31.0827 165.269 31.6276 165.269 32.1439V66.3046H162.688V25.7191H164.151C164.418 25.7191 164.619 25.7573 164.753 25.8338C164.906 25.8912 165.068 26.0346 165.24 26.2641L191.542 61.3999C191.485 60.8262 191.456 60.2813 191.456 59.765V25.7191H194.009Z" fill="#292A2C"/>
</svg>
