<svg width="32" height="32" viewBox="0 0 32 32" fill="none" xmlns="http://www.w3.org/2000/svg">
<path d="M30.9961 6.44118C29.8919 6.95588 28.7016 7.29412 27.4684 7.45588C28.7303 6.67647 29.7055 5.44118 30.1644 3.95588C28.9741 4.69118 27.6548 5.20588 26.2638 5.5C25.1309 4.23529 23.5391 3.5 21.7322 3.5C18.3623 3.5 15.6089 6.32353 15.6089 9.80882C15.6089 10.3088 15.6663 10.7941 15.7667 11.25C10.6615 10.9853 6.1156 8.47059 3.08978 4.66176C2.55919 5.58824 2.25804 6.67647 2.25804 7.82353C2.25804 10.0147 3.33357 11.9559 4.99705 13.0588C3.97889 13.0588 3.03242 12.7647 2.20068 12.3235V12.3676C2.20068 15.4265 4.32305 17.9853 7.13376 18.5588C6.23152 18.8131 5.28391 18.8484 4.36608 18.6618C4.75557 19.9154 5.51837 21.0124 6.54727 21.7984C7.57616 22.5845 8.81939 23.0201 10.1022 23.0441C7.92774 24.8096 5.23225 25.7638 2.45881 25.75C1.97124 25.75 1.48367 25.7206 0.996094 25.6618C3.72076 27.4559 6.96168 28.5 10.432 28.5C21.7322 28.5 27.9416 18.8824 27.9416 10.5441C27.9416 10.2647 27.9416 10 27.9273 9.72059C29.1319 8.83823 30.1644 7.72059 30.9961 6.44118Z" fill="black"/>
</svg>
