<svg width="120" height="121" viewBox="0 0 120 121" fill="none" xmlns="http://www.w3.org/2000/svg">
<path d="M42.8302 74.8869H42.5729V69.3161C42.5729 68.0206 41.5436 66.8546 40.1282 66.8546H37.4262V42.11H37.5548C38.8415 42.11 39.9995 41.0735 39.9995 39.6485C39.9995 38.3529 38.9702 37.187 37.5548 37.187H37.4262V36.5392H37.9408C39.2275 36.5392 40.3855 35.5028 40.3855 34.0777C40.3855 32.7822 39.3562 31.6162 37.9408 31.6162H37.4262V30.9684H38.9702C40.2569 30.9684 41.4149 29.932 41.4149 28.5069C41.4149 27.2114 40.3855 26.0454 38.9702 26.0454H37.4262V25.3976H39.9995C41.2862 25.3976 42.4442 24.3612 42.4442 22.9361C42.4442 21.511 41.4149 20.4746 39.9995 20.4746H37.4262V19.8269H38.9702C40.2569 19.8269 41.4149 18.7904 41.4149 17.3653C41.4149 15.9403 40.3855 14.9038 38.9702 14.9038H37.4262V14.2561H37.9408C39.2275 14.2561 40.3855 13.2197 40.3855 11.7946C40.3855 10.3695 39.3562 9.33306 37.9408 9.33306H37.4262V8.68529H37.5548C38.8415 8.68529 39.9995 7.64887 39.9995 6.22378C39.9995 4.7987 38.9702 3.76227 37.5548 3.76227H37.4262V3.37362C37.4262 2.07809 36.3968 0.912109 34.9815 0.912109C33.6948 0.912109 32.5368 1.94854 32.5368 3.37362V3.76227H32.4081C31.1214 3.76227 29.9634 4.7987 29.9634 6.22378C29.9634 7.64887 30.9927 8.68529 32.4081 8.68529H32.5368V9.33306H32.0221C30.7354 9.33306 29.5774 10.3695 29.5774 11.7946C29.5774 13.2197 30.6067 14.2561 32.0221 14.2561H32.5368V14.9038H30.9927C29.706 14.9038 28.548 15.9403 28.548 17.3653C28.548 18.7904 29.5774 19.8269 30.9927 19.8269H32.5368V20.4746H29.9634C28.6767 20.4746 27.5187 21.511 27.5187 22.9361C27.5187 24.3612 28.548 25.3976 29.9634 25.3976H32.5368V26.0454H30.9927C29.706 26.0454 28.548 27.0818 28.548 28.5069C28.548 29.8024 29.5774 30.9684 30.9927 30.9684H32.5368V31.6162H32.0221C30.7354 31.6162 29.5774 32.6526 29.5774 34.0777C29.5774 35.3732 30.6067 36.5392 32.0221 36.5392H32.5368V37.187H32.4081C31.1214 37.187 29.9634 38.2234 29.9634 39.6485C29.9634 40.944 30.9927 42.11 32.4081 42.11H32.5368V66.8546H29.8347C28.548 66.8546 27.39 67.891 27.39 69.3161V74.8869H27.1327C25.846 74.8869 24.688 75.9233 24.688 77.3484V111.68C24.688 116.085 28.2907 119.712 32.6654 119.712H37.0402C41.4149 119.712 45.0176 116.085 45.0176 111.68V77.2188C45.2749 75.9233 44.1169 74.8869 42.8302 74.8869ZM40.3855 111.68C40.3855 113.494 38.9702 114.919 37.1688 114.919H32.7941C30.9927 114.919 29.5774 113.494 29.5774 111.68V79.5508H40.2569V111.68H40.3855ZM32.4081 71.6481H37.6835V74.8869H32.4081V71.6481Z" fill="#4C4D56"/>
<path d="M92.6286 73.2876H89.5703V34.8177C89.5703 33.3833 88.4234 32.2096 87.0217 32.2096H86.6394V13.1703C86.6394 13.0399 86.6394 10.4318 86.0022 7.69323C84.4731 1.82495 81.1598 0.912109 79.3758 0.912109C77.0821 0.912109 74.5335 3.12902 70.9654 8.08446C68.7991 11.2142 67.015 14.344 66.8876 14.344C66.6328 14.7352 66.5053 15.2568 66.5053 15.648V31.9488H66.123C64.7213 31.9488 63.5744 33.1225 63.5744 34.5569V73.1572H60.5161C59.1143 73.1572 57.9675 74.3308 57.9675 75.7653V110.584C57.9675 115.539 61.9178 119.712 66.8876 119.712H86.3845C91.2269 119.712 95.3047 115.67 95.3047 110.584V75.7653C95.1772 74.4612 94.0304 73.2876 92.6286 73.2876ZM90.08 110.845C90.08 112.931 88.4234 114.757 86.2571 114.757H66.7602C64.7213 114.757 62.9373 113.062 62.9373 110.845V78.6343H89.9526V110.845H90.08ZM79.5033 6.12836C80.7776 6.38917 81.5422 10.4318 81.5422 13.0399V32.0792H71.6026V16.4305C74.5335 11.475 78.1015 6.9108 79.5033 6.12836ZM84.3456 37.4259V73.418H68.6716V37.4259H84.3456Z" fill="#4C4D56"/>
</svg>
