<svg width="120" height="120" viewBox="0 0 120 120" fill="none" xmlns="http://www.w3.org/2000/svg">
<path d="M48.1358 6.28719C44.009 3.32108 38.2058 1.64459 32.0156 1.51562H31.1129C24.9228 1.64459 19.1195 3.32108 14.9928 6.28719C10.3502 9.51122 7.8999 14.0249 7.8999 19.1833C7.8999 27.0499 12.1556 34.6587 14.7349 38.3985C16.2824 40.7198 18.0878 43.0411 19.8933 44.8466C20.6671 45.6204 21.3119 46.2652 21.9567 46.652L21.1829 110.359C21.1829 114.873 25.8255 118.483 31.7577 118.483C37.6899 118.483 42.3325 114.873 42.3325 110.359L41.5588 46.652C42.0746 46.2652 42.8484 45.6204 43.6222 44.8466C45.2986 43.1701 47.1041 40.8488 48.7806 38.3985C51.3598 34.6587 55.6155 27.0499 55.6155 19.1833C55.2287 14.0249 52.7784 9.51122 48.1358 6.28719ZM31.4998 113.97C27.8889 113.97 25.4386 112.035 25.4386 110.359L26.0834 58.2585H36.9162L37.561 110.359C37.561 112.035 35.1107 113.97 31.4998 113.97ZM26.2124 52.4553V47.8127H36.7872V52.4553H26.2124ZM38.4637 43.1701L41.8167 35.4324C42.3325 34.2718 41.8167 32.9822 40.656 32.4663C39.4954 31.9505 38.2058 32.4663 37.6899 33.627L33.5632 43.1701H29.6943L25.5676 33.627C25.0517 32.4663 23.7621 31.9505 22.6015 32.4663C21.4408 32.9822 20.925 34.2718 21.4408 35.4324L24.7938 43.1701C22.2146 41.3646 12.4135 30.145 12.4135 19.0543C12.4135 14.5407 15.2507 11.5746 17.572 9.8981C21.0539 7.44784 25.8255 6.02927 31.2419 5.90031H32.0156C37.432 6.02927 42.2036 7.44784 45.6855 9.8981C48.0068 11.5746 50.844 14.5407 50.844 19.0543C50.844 30.145 40.914 41.3646 38.4637 43.1701Z" fill="#4C4D56"/>
<path d="M101.389 2.35398C96.3594 1.83814 90.1693 1.70918 85.7846 1.70918C81.7868 1.70918 78.9497 1.83814 78.8207 1.83814C77.5311 1.83814 76.4994 2.99879 76.4994 4.2884V13.8315C76.4994 15.1211 77.5311 16.1528 78.8207 16.2818V18.3452H77.918C76.6284 18.3452 75.5967 19.2479 75.4677 20.5375L74.0491 34.5943C71.5989 35.3681 69.4065 36.3997 67.73 37.6894C66.3115 38.5921 65.1508 40.0107 64.506 41.5582C64.1191 42.332 63.9902 43.2347 63.9902 44.1374V110.423C63.9902 114.808 67.4721 118.29 71.8568 118.29H101.002C105.387 118.29 108.869 114.679 108.869 110.423V44.1374C108.869 43.2347 108.74 42.4609 108.353 41.5582C107.708 40.0107 106.676 38.5921 105.129 37.6894C103.452 36.3997 101.389 35.3681 98.8097 34.5943L97.3911 20.5375C97.2622 19.2479 96.2305 18.3452 94.9408 18.3452H94.0381V16.2818C94.0381 16.2818 94.9409 16.1528 95.3277 16.0239C98.8097 14.3474 106.805 13.8315 109.642 13.8315C110.932 13.8315 112.093 12.6709 112.093 11.3813V7.89931C112.093 4.03048 106.934 2.99879 101.389 2.35398ZM107.192 9.05997C103.71 9.18893 97.649 9.83373 93.7802 11.3813H81.271V6.73866C89.2666 5.9649 105.516 7.77035 107.192 8.67308V9.05997ZM104.097 44.1374V110.423C104.097 112.1 102.807 113.39 101.131 113.39H71.9858C70.3093 113.39 69.0197 111.971 69.0197 110.423V44.1374C69.0197 43.8795 70.4382 37.6894 86.5584 37.6894C101.002 37.6894 104.097 44.0084 104.097 44.1374ZM89.2666 18.3452H83.5923V16.2818H89.2666V18.3452ZM79.9814 23.2457H92.8775L93.9092 33.4336C91.5879 33.0467 89.0086 32.7888 86.4294 32.7888C83.8502 32.7888 81.271 33.0467 78.9497 33.4336L79.9814 23.2457Z" fill="#4C4D56"/>
<path d="M72.3726 51.8751V90.8214C72.3726 92.111 73.4043 93.2716 74.8229 93.2716H98.1649C99.4545 93.2716 100.615 92.111 100.615 90.8214V51.8751C100.615 50.5855 99.5835 49.4248 98.1649 49.4248H74.8229C73.4043 49.4248 72.3726 50.4565 72.3726 51.8751ZM95.7146 88.3711H77.2732V54.3253H95.7146V88.3711Z" fill="#4C4D56"/>
</svg>
