<svg width="120" height="120" viewBox="0 0 120 120" fill="none" xmlns="http://www.w3.org/2000/svg">
<path d="M83.8931 113.961H65.8638C63.4514 113.961 61.4199 111.93 61.4199 109.517V100.249C61.4199 95.4242 57.484 91.6152 52.7862 91.6152C50.5008 91.6152 48.3424 92.5039 46.6918 94.1545C45.0412 95.8051 44.1525 97.9635 44.1525 100.249V109.517C44.1525 110.66 43.6446 111.803 42.8828 112.692C41.994 113.58 40.9783 113.961 39.7086 113.961C37.2962 113.961 35.2648 111.93 35.2648 109.517V104.185C37.6771 103.423 39.4547 101.138 39.4547 98.4714L39.9625 89.4567C42.3749 87.4253 43.8985 84.505 44.0255 81.2039C44.0255 81.0769 44.0255 9.97549 44.0255 9.97549C44.0255 5.53165 40.3434 1.84961 35.8996 1.84961H33.1063C31.9636 1.84961 30.9479 2.73838 30.9479 4.00805V59.3656L20.7906 5.15075C20.6636 4.64288 20.4097 4.13501 19.9018 3.75411C19.3939 3.50018 18.8861 3.37321 18.2512 3.50018L15.5849 4.13501C13.4265 4.64288 11.6489 5.78558 10.5062 7.69008C9.36353 9.46762 8.98264 11.6261 9.36354 13.7845L22.4411 83.3623C22.949 85.9016 24.3456 88.0601 26.2501 89.5837L26.758 98.4714C26.758 101.138 28.5355 103.296 30.9479 104.185V109.517C30.9479 114.342 34.8839 118.151 39.5817 118.151C41.8671 118.151 44.0255 117.262 45.676 115.612C47.3266 113.961 48.2154 111.803 48.2154 109.517V100.249C48.2154 99.1062 48.7233 97.9635 49.4851 97.0747C50.3738 96.186 51.3896 95.8051 52.6592 95.8051C55.0716 95.8051 57.1031 97.8365 57.1031 100.249V109.517C57.1031 114.342 61.0391 118.151 65.7368 118.151H83.8931C85.0358 118.151 86.0515 117.262 86.0515 115.993C86.0515 114.85 85.0358 113.961 83.8931 113.961ZM14.1883 9.84852C15.458 7.94402 17.2355 8.07098 17.2355 8.07098L29.2973 72.8241C29.4243 73.3319 29.6782 73.8398 30.1861 74.2207C30.694 74.4746 31.2018 74.6016 31.8367 74.4746C32.3445 74.3477 32.7254 74.3477 33.2333 74.3477C36.4075 74.3477 39.0738 76.6331 39.7086 79.6803C40.4704 83.2353 37.9311 87.8062 33.1063 87.8062C29.9322 87.8062 27.1389 85.5208 26.631 82.4735L13.5535 12.8957C13.4265 11.88 13.5535 10.7373 14.1883 9.84852ZM39.8356 10.1025V72.4432C38.5659 71.4274 36.9153 70.6656 35.2648 70.2847V6.16648H35.8996C38.185 6.16648 39.8356 7.94402 39.8356 10.1025ZM33.1063 100.249C31.9636 100.249 31.0749 99.4871 31.0749 98.4714L30.694 91.6152C31.4558 91.8691 32.3445 91.8691 33.2333 91.8691C34.503 91.8691 35.6457 91.6152 35.7726 91.6152L35.3917 98.4714C35.2648 99.4871 34.376 100.249 33.1063 100.249Z" fill="#4C4D56"/>
<path d="M79.5458 57.3976C78.9109 57.3976 78.403 57.6515 78.0221 58.0324C77.6412 58.4133 77.3873 59.0482 77.3873 59.556C77.3873 60.1909 77.6412 60.6987 78.0221 61.0796C78.403 61.4605 79.0379 61.7145 79.5458 61.7145C80.1806 61.7145 80.6884 61.4605 81.0693 61.0796C81.4502 60.6987 81.7042 60.0639 81.7042 59.556C81.7042 58.9212 81.4502 58.4133 81.0693 58.0324C80.8154 57.6515 80.1806 57.3976 79.5458 57.3976Z" fill="#4C4D56"/>
<path d="M79.5458 12.8322C78.9109 12.8322 78.403 13.0862 78.0221 13.4671C77.6412 13.848 77.3873 14.4828 77.3873 14.9907C77.3873 15.6255 77.6412 16.1334 78.0221 16.5143C78.403 16.8952 79.0379 17.1491 79.5458 17.1491C80.1806 17.1491 80.6884 16.8952 81.0693 16.5143C81.4502 16.1334 81.7042 15.4985 81.7042 14.9907C81.7042 14.3558 81.4502 13.848 81.0693 13.4671C80.8154 13.0862 80.1806 12.8322 79.5458 12.8322Z" fill="#4C4D56"/>
<path d="M79.5458 21.7199C78.9109 21.7199 78.403 21.9739 78.0221 22.3548C77.6412 22.7357 77.3873 23.3705 77.3873 23.8784C77.3873 24.5132 77.6412 25.0211 78.0221 25.402C78.403 25.7829 79.0379 26.0368 79.5458 26.0368C80.1806 26.0368 80.6884 25.7829 81.0693 25.402C81.4502 25.0211 81.7042 24.3862 81.7042 23.8784C81.7042 23.2435 81.4502 22.7357 81.0693 22.3548C80.8154 21.9739 80.1806 21.7199 79.5458 21.7199Z" fill="#4C4D56"/>
<path d="M79.5458 30.6076C78.9109 30.6076 78.403 30.8615 78.0221 31.2424C77.6412 31.6233 77.3873 32.2582 77.3873 32.766C77.3873 33.4009 77.6412 33.9087 78.0221 34.2896C78.403 34.6705 79.0379 34.9245 79.5458 34.9245C80.1806 34.9245 80.6884 34.6705 81.0693 34.2896C81.4502 33.9087 81.7042 33.2739 81.7042 32.766C81.7042 32.1312 81.4502 31.6233 81.0693 31.2424C80.8154 30.8615 80.1806 30.6076 79.5458 30.6076Z" fill="#4C4D56"/>
<path d="M79.5458 39.6222C78.9109 39.6222 78.403 39.8762 78.0221 40.2571C77.6412 40.638 77.3873 41.2728 77.3873 41.7807C77.3873 42.4155 77.6412 42.9234 78.0221 43.3043C78.403 43.6852 79.0379 43.9391 79.5458 43.9391C80.1806 43.9391 80.6884 43.6852 81.0693 43.3043C81.4502 42.9234 81.7042 42.2886 81.7042 41.7807C81.7042 41.1459 81.4502 40.638 81.0693 40.2571C80.8154 39.8762 80.1806 39.6222 79.5458 39.6222Z" fill="#4C4D56"/>
<path d="M79.5458 48.5099C78.9109 48.5099 78.403 48.7639 78.0221 49.1448C77.6412 49.5257 77.3873 50.1605 77.3873 50.6684C77.3873 51.3032 77.6412 51.8111 78.0221 52.192C78.403 52.5729 79.0379 52.8268 79.5458 52.8268C80.1806 52.8268 80.6884 52.5729 81.0693 52.192C81.4502 51.8111 81.7042 51.1762 81.7042 50.6684C81.7042 50.0335 81.4502 49.5257 81.0693 49.1448C80.8154 48.7639 80.1806 48.5099 79.5458 48.5099Z" fill="#4C4D56"/>
<path d="M90.7188 57.3976C90.084 57.3976 89.5761 57.6515 89.1952 58.0324C88.8143 58.4133 88.5604 59.0482 88.5604 59.556C88.5604 60.1909 88.8143 60.6987 89.1952 61.0796C89.5761 61.4605 90.211 61.7145 90.7188 61.7145C91.3537 61.7145 91.8615 61.4605 92.2424 61.0796C92.6233 60.6987 92.8773 60.0639 92.8773 59.556C92.8773 58.9212 92.6233 58.4133 92.2424 58.0324C91.8615 57.6515 91.2267 57.3976 90.7188 57.3976Z" fill="#4C4D56"/>
<path d="M90.7188 12.8322C90.084 12.8322 89.5761 13.0862 89.1952 13.4671C88.8143 13.848 88.5604 14.4828 88.5604 14.9907C88.5604 15.6255 88.8143 16.1334 89.1952 16.5143C89.5761 16.8952 90.211 17.1491 90.7188 17.1491C91.3537 17.1491 91.8615 16.8952 92.2424 16.5143C92.6233 16.1334 92.8773 15.4985 92.8773 14.9907C92.8773 14.3558 92.6233 13.848 92.2424 13.4671C91.8615 13.0862 91.2267 12.8322 90.7188 12.8322Z" fill="#4C4D56"/>
<path d="M90.7188 21.7199C90.084 21.7199 89.5761 21.9739 89.1952 22.3548C88.8143 22.7357 88.5604 23.3705 88.5604 23.8784C88.5604 24.5132 88.8143 25.0211 89.1952 25.402C89.5761 25.7829 90.211 26.0368 90.7188 26.0368C91.3537 26.0368 91.8615 25.7829 92.2424 25.402C92.6233 25.0211 92.8773 24.3862 92.8773 23.8784C92.8773 23.2435 92.6233 22.7357 92.2424 22.3548C91.8615 21.9739 91.2267 21.7199 90.7188 21.7199Z" fill="#4C4D56"/>
<path d="M90.7188 30.6076C90.084 30.6076 89.5761 30.8615 89.1952 31.2424C88.8143 31.6233 88.5604 32.2582 88.5604 32.766C88.5604 33.4009 88.8143 33.9087 89.1952 34.2896C89.5761 34.6705 90.211 34.9245 90.7188 34.9245C91.3537 34.9245 91.8615 34.6705 92.2424 34.2896C92.6233 33.9087 92.8773 33.2739 92.8773 32.766C92.8773 32.1312 92.6233 31.6233 92.2424 31.2424C91.8615 30.8615 91.2267 30.6076 90.7188 30.6076Z" fill="#4C4D56"/>
<path d="M90.7188 39.6222C90.084 39.6222 89.5761 39.8762 89.1952 40.2571C88.8143 40.638 88.5604 41.2728 88.5604 41.7807C88.5604 42.4155 88.8143 42.9234 89.1952 43.3043C89.5761 43.6852 90.211 43.9391 90.7188 43.9391C91.3537 43.9391 91.8615 43.6852 92.2424 43.3043C92.6233 42.9234 92.8773 42.2886 92.8773 41.7807C92.8773 41.1459 92.6233 40.638 92.2424 40.2571C91.8615 39.8762 91.2267 39.6222 90.7188 39.6222Z" fill="#4C4D56"/>
<path d="M90.7188 48.5099C90.084 48.5099 89.5761 48.7639 89.1952 49.1448C88.8143 49.5257 88.5604 50.1605 88.5604 50.6684C88.5604 51.3032 88.8143 51.8111 89.1952 52.192C89.5761 52.5729 90.211 52.8268 90.7188 52.8268C91.3537 52.8268 91.8615 52.5729 92.2424 52.192C92.6233 51.8111 92.8773 51.1762 92.8773 50.6684C92.8773 50.0335 92.6233 49.5257 92.2424 49.1448C91.8615 48.7639 91.2267 48.5099 90.7188 48.5099Z" fill="#4C4D56"/>
<path d="M108.621 26.1638C109.891 26.1638 110.78 25.148 110.78 23.8784C110.78 22.6087 109.764 21.593 108.621 21.593H101.384V17.1491H108.621C109.891 17.1491 110.78 16.1334 110.78 14.8637C110.78 13.594 109.764 12.5783 108.621 12.5783H101.384C101.257 6.73784 96.5593 2.16703 90.8458 2.16703H79.6727C73.8322 2.16703 69.1345 6.8648 69.1345 12.5783H61.8973C60.6277 12.5783 59.7389 13.594 59.7389 14.8637C59.7389 16.1334 60.7546 17.1491 61.8973 17.1491H69.1345V21.593H61.8973C60.6277 21.593 59.7389 22.6087 59.7389 23.8784C59.7389 25.148 60.7546 26.1638 61.8973 26.1638H69.1345V30.6076H61.8973C60.6277 30.6076 59.7389 31.6233 59.7389 32.893C59.7389 34.1627 60.7546 35.1784 61.8973 35.1784H69.1345V39.6222H61.8973C60.6277 39.6222 59.7389 40.638 59.7389 41.9076C59.7389 43.1773 60.7546 44.1931 61.8973 44.1931H69.1345V48.6369H61.8973C60.6277 48.6369 59.7389 49.6526 59.7389 50.9223C59.7389 52.192 60.7546 53.2077 61.8973 53.2077H69.1345V57.6515H61.8973C60.6277 57.6515 59.7389 58.6673 59.7389 59.9369C59.7389 61.2066 60.7546 62.2223 61.8973 62.2223H69.1345C69.1345 67.301 72.8165 71.4909 77.5143 72.5067V110.089C77.5143 114.406 80.9424 117.834 85.2593 117.834C89.5761 117.834 93.0042 114.406 93.0042 110.089V72.1258C97.829 71.11 101.384 66.9201 101.384 61.8414H108.621C109.891 61.8414 110.78 60.8257 110.78 59.556C110.78 58.2864 109.764 57.2706 108.621 57.2706H101.384V52.8268H108.621C109.891 52.8268 110.78 51.8111 110.78 50.5414C110.78 49.2717 109.764 48.256 108.621 48.256H101.384V43.8121H108.621C109.891 43.8121 110.78 42.7964 110.78 41.5267C110.78 40.2571 109.764 39.2413 108.621 39.2413H101.384V34.7975H108.621C109.891 34.7975 110.78 33.7818 110.78 32.5121C110.78 31.2424 109.764 30.2267 108.621 30.2267H101.384V25.7829H108.621V26.1638ZM96.9402 61.7145C96.9402 65.1426 94.1469 67.8089 90.8458 67.8089H79.6727C76.2446 67.8089 73.5783 65.0156 73.5783 61.7145V12.9592C73.5783 9.53111 76.3716 6.8648 79.6727 6.8648H90.8458C94.2739 6.8648 96.9402 9.65807 96.9402 12.9592V61.7145ZM88.4334 109.708C88.4334 111.485 86.9098 113.009 85.1323 113.009C83.3548 113.009 81.8311 111.485 81.8311 109.708V72.3797H88.4334V109.708Z" fill="#4C4D56"/>
</svg>
