<svg width="121" height="121" viewBox="0 0 121 121" fill="none" xmlns="http://www.w3.org/2000/svg">
<path d="M52.5382 100.965C48.7762 96.7461 43.8858 96.2347 38.8699 99.6863C37.3651 100.709 35.4842 100.965 33.854 100.453C32.4747 99.942 31.4715 98.9193 30.9699 97.6409C30.2175 95.3399 30.7191 93.5501 32.3492 92.0161C33.9794 90.6099 35.9858 90.4821 38.7445 91.7604C39.2461 92.0161 39.6223 92.1439 40.1239 92.3996C41.754 93.1666 43.5096 94.0615 45.2651 94.1893C49.1524 94.445 53.4159 91.1213 54.6699 86.647C55.7985 82.8119 54.4191 78.5932 51.2842 76.0365C47.6477 73.0962 43.635 72.8406 39.7477 75.2695C39.4969 75.3973 39.2461 75.5251 39.1207 75.7808C38.7445 76.0365 38.3683 76.2922 37.9921 76.42C35.2334 77.3149 33.3524 76.9313 31.8477 75.2695C30.4683 73.6076 30.2175 71.69 31.3461 69.389C32.2238 67.5993 34.9826 66.5766 37.1143 67.2157C37.8667 67.4714 38.4937 67.8549 39.1207 68.3663C39.3715 68.4941 39.6223 68.7498 39.8731 68.8776C44.2619 71.5622 49.027 70.7952 52.5382 66.8322C56.0493 62.8693 56.0493 57.628 52.5382 53.5372C49.4032 49.8299 44.5128 48.9351 40.1239 51.364C39.8731 51.4918 39.6223 51.6196 39.3715 51.7475C38.2429 52.3867 37.1143 53.0258 35.9858 53.2815C33.1016 53.7929 31.5969 51.4918 30.9699 50.0856C30.0921 48.168 30.4683 46.2505 32.0984 44.5886C33.4778 43.1824 36.3619 43.0546 38.9953 44.2051C41.3778 45.3556 43.5096 45.9948 45.3905 46.1226C49.5286 46.3783 53.1651 43.9494 54.6699 39.7308C56.0493 35.8957 55.2969 32.1884 52.2874 29.1204C49.2778 25.9244 45.3905 25.1574 41.3778 26.9471C40.7508 27.2028 40.1239 27.5863 39.4969 27.9698C38.8699 28.3533 38.2429 28.7368 37.4905 28.9925C35.2334 29.8874 33.3524 29.5038 31.7223 27.5863C30.2175 25.9244 30.0921 24.0069 31.2207 21.8336C32.2239 20.0439 33.9794 19.1491 36.2366 19.5326C37.3651 19.7882 38.3683 20.4274 39.3715 20.9388C43.2588 23.3677 47.8985 23.2398 51.0334 20.6831C54.4191 17.8707 55.9239 13.5242 54.7953 9.94481C53.2905 5.08701 49.654 2.53027 44.7635 2.53027C37.3651 2.53027 30.0921 2.53027 22.6937 2.53027C15.7968 2.53027 12.4111 5.98187 12.4111 12.8851C12.4111 25.2852 12.4111 37.8133 12.4111 50.2134V75.0138C12.4111 86.1356 12.4111 97.3853 12.4111 108.507C12.4111 113.748 16.173 117.839 20.8127 117.967C25.0762 118.095 29.2143 118.095 33.3524 118.095C37.6159 118.095 41.754 118.095 45.7667 117.967C49.7794 117.839 52.789 115.41 54.5445 111.192C55.9239 107.484 55.1715 104.033 52.5382 100.965ZM17.3016 52.5145C17.3016 39.4751 17.3016 26.4358 17.3016 13.3964C17.3016 8.66645 18.5556 7.38807 23.1953 7.38807C25.0762 7.38807 26.8318 7.38807 28.7127 7.38807C30.7191 7.38807 32.6 7.38807 34.6064 7.38807C38.1175 7.38807 41.5032 7.38808 45.0143 7.64375C46.5191 7.77159 48.5254 9.17779 49.654 10.4562C50.908 11.8624 50.6572 13.6521 49.027 15.8253C47.6477 17.7429 44.0112 17.8707 41.2524 16.081C36.8635 13.2686 31.5969 14.0356 28.2111 17.8707C24.8254 21.7058 24.7 26.8193 27.9604 30.9101C31.3461 35.1287 36.1112 36.0235 41.0016 33.2111C41.2524 33.0833 41.5032 32.9555 41.754 32.8276C42.6318 32.3163 43.3842 31.8049 44.2619 31.6771C46.7699 31.0379 48.4 31.9327 49.9048 34.6173C50.908 36.5349 50.5318 38.1968 48.6508 40.1143C46.8953 41.7762 44.6381 42.0319 42.5064 40.6257C38.1175 37.6854 34.3556 37.4297 30.5937 39.7308C26.4556 42.2875 23.8223 48.0402 27.208 53.7929C29.8413 58.2672 36.1112 60.0569 40.6254 57.3723C41.0016 57.1166 41.3778 56.9888 41.754 56.7331C42.2556 56.4774 42.6318 56.2218 43.1334 55.9661C45.5159 54.6877 47.2715 55.0712 49.1524 57.3723C50.908 59.4177 50.908 61.0796 49.2778 63.5085C47.8985 65.426 45.3905 66.0652 43.5096 65.0425L43.1334 64.7868C40.6254 63.3806 37.8667 61.9744 34.6064 62.3579C30.8445 62.8693 27.7096 65.2982 26.581 68.6219C25.0762 72.9684 25.954 76.9314 29.2143 79.8716C32.3492 82.684 35.735 83.3232 39.3715 81.917C40.3747 81.5335 41.2524 80.8943 42.1302 80.3829L42.2556 80.2551C44.8889 78.5932 47.2715 78.8489 49.027 80.7665C51.0334 83.1954 51.0334 85.1129 49.1524 87.5418C47.3969 89.715 44.8889 89.8429 42.2556 88.0532C38.6191 85.6243 35.2334 85.2408 31.7223 86.9026C29.3397 88.0532 27.3334 90.4821 26.4556 93.1666C25.8286 95.0842 25.5778 97.8966 27.3334 101.093C28.5873 103.394 30.8445 105.183 33.4778 105.822C36.1112 106.59 38.9953 106.078 41.3778 104.672C41.6286 104.544 41.8794 104.416 42.1302 104.161C43.7604 103.01 45.2651 102.115 47.2715 103.266C49.654 104.544 50.6572 106.206 50.5318 108.379C50.4064 110.552 47.8985 112.981 45.7667 113.109C36.6128 113.237 28.9635 113.237 21.6905 113.109C19.308 113.109 17.6778 110.936 17.6778 107.74C17.6778 96.2347 17.6778 84.6016 17.6778 73.0962V60.4404L17.3016 52.5145Z" fill="#4C4D56"/>
<path d="M108.116 107.821L106.053 78.521C106.053 78.0137 104.764 66.8518 97.2867 59.622C97.2867 59.4951 97.2867 59.3683 97.2867 59.2415V22.2044C97.2867 17.7651 93.548 14.0867 89.0358 14.0867H82.7186C78.2064 14.0867 74.4677 17.7651 74.4677 22.2044V59.2415C74.4677 59.3683 74.4677 59.4951 74.4677 59.622C66.9903 66.8518 65.83 78.0137 65.7011 78.521L63.6383 107.821C63.3805 111.119 64.154 113.782 65.83 115.558C68.2795 118.095 71.8893 118.095 73.1785 118.095H98.5759C99.7362 118.095 103.475 118.095 105.924 115.558C107.6 113.782 108.374 111.119 108.116 107.821ZM102.057 112.007C101.412 112.641 100.381 112.894 98.5759 112.894H73.0496C71.2447 112.894 70.2133 112.641 69.5687 112.007C68.7952 111.119 68.6662 109.47 68.7952 108.201L70.8579 79.0284C70.8579 78.9015 70.9868 78.0137 71.2447 76.8721H100.381C100.639 78.0137 100.768 78.9015 100.768 79.0284L102.83 108.201C102.959 109.47 102.959 111.119 102.057 112.007ZM79.7534 22.2044C79.7534 20.5555 81.0426 19.2871 82.7186 19.2871H89.0358C90.7117 19.2871 92.0009 20.6824 92.0009 22.2044V56.7047H79.6245V22.2044H79.7534ZM88.5201 71.6717V61.9051H91.872C95.3529 64.4419 97.5445 68.247 98.8337 71.6717H88.5201ZM79.8824 61.9051H83.2343V71.6717H72.7917C74.2098 68.247 76.2726 64.4419 79.8824 61.9051Z" fill="#4C4D56"/>
</svg>
